<?xml version="1.0" encoding="UTF-8"?><svg id="a" xmlns="http://www.w3.org/2000/svg" viewBox="0 0 138.86 127.36"><path class="b" d="M69.43,127.36c-2.84,0-3.52-1.54-3.64-1.9-.02-.05,0-.09,.04-.12,.33-.23,1.92-1.39,1.92-2.63,0-1.38-1.43-4.4-3.51-4.4-2.46,0-3.43,1.5-3.68,2.01-.04,.08-.14,.09-.19,.02-.3-.43-1.07-1.76-1.07-3.8,0-2.52,1.48-5.14,10.14-5.14m0,15.97c2.84,0,3.52-1.54,3.64-1.9,.02-.05,0-.09-.04-.12-.33-.23-1.92-1.39-1.92-2.63,0-1.38,1.43-4.4,3.51-4.4,2.46,0,3.43,1.5,3.68,2.01,.04,.08,.14,.09,.19,.02,.3-.43,1.07-1.76,1.07-3.8,0-2.52-1.48-5.14-10.14-5.14"/><path class="b" d="M86.69,87.71l-9.41-7.88h-.01c-.12-.08-4.01-2.31-7.84-2.31s-7.72,2.24-7.84,2.31h-.01l-9.41,7.88c-1.12,.94-1.44,2.54-.76,3.84l2.47,5.23c.26,.56,.94,.79,1.49,.51,.72-.36,1.57-.68,2.13-.7l6.16-.26c.12,0,.17,.15,.07,.22l-7.38,4.8c-.32,.21-.43,.63-.25,.97l2.79,5.18c.27,.51,.91,.7,1.4,.41,1.13-.66,3.69-1.58,9.13-1.58s8,.92,9.13,1.58c.5,.29,1.13,.1,1.4-.41l2.79-5.18c.18-.34,.07-.76-.25-.97l-7.38-4.8c-.1-.07-.05-.22,.07-.22l6.16,.26c.56,.02,1.41,.34,2.13,.7,.55,.28,1.23,.05,1.49-.51l2.47-5.23c.68-1.3,.36-2.9-.76-3.84Z"/><path class="b" d="M33.12,.37c.36-.47,1.06-.49,1.44-.03,2.79,3.41,12.59,15.81,12.59,21.47,0,4.91-5.96,8.29-9.01,9.69-1.07,.49-2.3,.39-3.26-.29-3.13-2.21-10.02-7.7-10.02-13.36,0-6.06,6.14-14.69,8.26-17.48Z"/><path class="b" d="M105.74,.37c-.36-.47-1.06-.49-1.44-.03-2.79,3.41-12.59,15.81-12.59,21.47,0,4.91,5.96,8.29,9.01,9.69,1.07,.49,2.3,.39,3.26-.29,3.13-2.21,10.02-7.7,10.02-13.36,0-6.06-6.14-14.69-8.26-17.48Z"/><path class="b" d="M138.49,48.07c-1.68,1.89-8.87,9.51-16.32,9.85-.19,0-.29-.22-.16-.36,3.18-3.4,10.82-14.1,10.82-22.28s-6.87-14.32-8.04-15.38c-.09-.08-.22-.07-.3,.03-1.95,2.58-25.28,32.83-46.8,33.05-.14,0-.24-.12-.21-.25,.52-2.67,7.53-17.9,10.82-22.52,.43-.6,.39-1.4-.11-1.94-3.39-3.66-15.45-16.44-18.76-16.44s-15.36,12.77-18.76,16.44c-.5,.54-.53,1.34-.11,1.94,3.29,4.62,10.31,19.85,10.82,22.52,.03,.13-.08,.25-.21,.25-21.52-.23-44.85-30.48-46.8-33.05-.07-.1-.21-.11-.3-.03-1.17,1.05-8.04,7.6-8.04,15.38,0,8.18,7.64,18.88,10.82,22.28,.13,.14,.02,.37-.16,.36-7.46-.34-14.65-7.96-16.32-9.85-.13-.15-.37-.05-.37,.14v18.47s0,.06,.02,.09c.24,.48,2.64,5.09,6.9,9.35,3.93,3.93,11.41,5.82,13.24,6.24,.17,.04,.22,.25,.09,.36-1.87,1.56-11.26,9.39-12.76,10.75-.09,.08-.09,.23,0,.31,4.29,3.75,26.22,5.68,29.41,5.95,.17,.01,.25,.21,.14,.34-.99,1.23-4.68,5.79-5.55,6.76-.08,.09-.07,.22,.02,.29,2.26,1.87,13.33,5.18,14.31,5.48,.05,.01,.08,.04,.11,.08,.49,.81,5.58,9.18,7.71,11.87,.14,.18,.42,.03,.36-.19-.93-3.33-.26-12.5-.21-13.27,0-.04,0-.06-.02-.1-.51-1.04-9.57-19.6-10.8-21.15-.04-.05-.09-.07-.16-.07-9.55-.04-13.98-6.25-14.65-7.28-.05-.08-.04-.19,.03-.26l7.93-7.74c.08-.08,.22-.08,.3,0l9.88,10.74c.09,.09,.23,.09,.31,0,1.56-1.83,14.8-17.03,22.79-17.03s21.23,15.2,22.79,17.03c.08,.1,.23,.1,.31,0l9.88-10.74c.08-.09,.22-.09,.3,0l7.93,7.74c.07,.07,.09,.18,.03,.26-.67,1.02-5.09,7.23-14.65,7.28-.06,0-.12,.02-.16,.07-1.23,1.55-10.29,20.11-10.8,21.15-.02,.03-.02,.06-.02,.1,.06,.77,.72,9.94-.21,13.27-.06,.22,.22,.37,.36,.19,2.14-2.69,7.22-11.06,7.71-11.87,.03-.04,.06-.07,.11-.08,.98-.29,12.05-3.6,14.31-5.48,.09-.07,.09-.2,.02-.29-.87-.98-4.56-5.54-5.55-6.76-.11-.13-.03-.32,.14-.34,3.2-.26,25.12-2.2,29.41-5.95,.09-.08,.09-.22,0-.31-1.51-1.36-10.89-9.19-12.76-10.75-.13-.11-.08-.32,.09-.36,1.83-.42,9.31-2.31,13.24-6.24,4.26-4.26,6.66-8.88,6.9-9.35,.02-.03,.02-.06,.02-.09v-18.47c0-.19-.24-.29-.37-.14Z"/></svg>