<svg id="aa330a69-7331-400f-9e10-c659623e93e7" data-name="Ebene 2" xmlns="http://www.w3.org/2000/svg" viewBox="0 0 113.02 142.76"><path d="M28.44,142.26,63,71.57a.06.06,0,0,0-.05-.09l-40.12-.26a.06.06,0,0,1,0-.1L91,0a.06.06,0,0,1,.1.07L65.69,53.34a.05.05,0,0,0,0,.08L108.84,56a.06.06,0,0,1,0,.1L28.54,142.33A.06.06,0,0,1,28.44,142.26Z"/><path d="M22,138l3-44a.07.07,0,0,0-.07-.07l-14,2.35a.06.06,0,0,1-.07-.06l4.27-38.74c0-.07-.1-.09-.12,0L0,108.52a.06.06,0,0,0,.07.07l15.28-2a.08.08,0,0,1,.07.05L21.84,138A.06.06,0,0,0,22,138Z"/><path d="M39.78,142.75l60.39-25.6a.06.06,0,0,0,0-.1L90,108.85a.06.06,0,0,1,0-.09l23-20.44a.06.06,0,0,0-.06-.1L70.68,108.56a.07.07,0,0,0,0,.11l9.27,7.79a.07.07,0,0,1,0,.1l-40.2,26.09A.06.06,0,0,0,39.78,142.75Z"/></svg>