<?xml version="1.0" encoding="UTF-8"?><svg id="a" xmlns="http://www.w3.org/2000/svg" viewBox="0 0 136.32 125.8"><path class="b" d="M38.3,122.77l-4.5,.12c-.11,0-.2-.09-.2-.2v-30.78s0,0,0-.01c-.01-.15-.52-5.4-4.48-9.36s-18.13-10.09-24.13-16.09S.63,56.44,.63,45.1C.63,35.24,.13,24.88,0,22.34c0-.19,.23-.28,.35-.13,1.63,1.98,8,10.19,9.15,19.2,.34,2.51,2.87,10.25,4.29,11.67,2.9,2.99,25.29,10.42,30.1,15.23s7.09,8.84,7.09,14.64-2.58,17.84-2.6,34.23c0,.11-.08,.19-.19,.19-3.76,.07-9.48,2.21-9.7,5.23,0,.1-.08,.18-.18,.18Z"/><path class="b" d="M98.03,122.77l4.5,.12c.11,0,.2-.09,.2-.2v-30.78s0,0,0-.01c.01-.15,.52-5.4,4.48-9.36s18.13-10.09,24.13-16.09,4.35-10.02,4.35-21.36c0-9.86,.5-20.22,.63-22.76,0-.19-.23-.28-.35-.13-1.63,1.98-8,10.19-9.15,19.2-.34,2.51-2.87,10.25-4.29,11.67-2.9,2.99-25.29,10.42-30.1,15.23s-7.09,8.84-7.09,14.64,2.58,17.84,2.6,34.23c0,.11,.08,.19,.19,.19,3.76,.07,9.48,2.21,9.7,5.23,0,.1,.08,.18,.18,.18Z"/><path class="b" d="M68.16,125.8h-2.84s-.09-.02-.13-.05l-10.36-8.8s-.07-.09-.07-.15c-.77-26.5,5.74-64.59,5.74-64.59L68.16,0m0,125.8h2.84s.09-.02,.13-.05l10.36-8.8s.07-.09,.07-.15c.77-26.5-5.74-64.59-5.74-64.59L68.16,0"/></svg>