<?xml version="1.0" encoding="UTF-8"?><svg id="a" xmlns="http://www.w3.org/2000/svg" viewBox="0 0 126.95 140.72"><path d="M.05,71.49l32,46.44c.13,.2,.43,.17,.53-.04l20.1-41.1c.06-.13,.03-.29-.09-.38L19.13,50.36c-.13-.1-.31-.08-.42,.04L.08,71.1c-.1,.11-.11,.27-.02,.38Z"/><path d="M44.87,120.35l16.13,20.26c.12,.16,.36,.16,.49,0l35.15-43.74c.11-.14,.08-.35-.07-.45l-32.24-22.27c-.16-.11-.39-.05-.46,.14l-19.03,45.76c-.04,.1-.03,.22,.04,.31Z"/><path d="M93.97,24.02l-19.44,40.44c-.06,.13-.03,.29,.09,.38l32.81,25.59c.13,.1,.31,.08,.42-.03l19.02-19.99c.1-.11,.11-.27,.03-.39L94.51,23.98c-.14-.19-.43-.17-.53,.04Z"/><path d="M80.88,20.55l-18.38,45.96c-.07,.18-.3,.25-.46,.14L29.4,44.31c-.15-.1-.18-.31-.07-.45L64.68,.12c.13-.16,.36-.15,.49,0l15.67,20.12c.07,.09,.08,.2,.04,.31Z"/></svg>