<?xml version="1.0" encoding="UTF-8"?><svg id="a" xmlns="http://www.w3.org/2000/svg" viewBox="0 0 137.67 120.17"><path class="b" d="M40.25,120.11c4.03-2.64,17.89-12.79,18.1-27.66,0-.19,.13-.34,.31-.37,1.76-.26,7.97-2.33,8.55-7.33,.03-.3,.38-.43,.61-.24,1.32,1.08,3.79,2.46,6.95,2.46s5.26-.79,6-1.08c.14-.06,.3-.02,.42,.09,.45,.42,2.15,1.39,8.22,1.39,7.78,0,12.07-8.37,12.07-11.93,0-2.25-.6-3.79-1.05-4.61-.15-.28,.09-.6,.4-.55,1.31,.21,3.81,.35,5.55-1.14,.14-.12,.34-.14,.48-.02,1.29,1.06,5.25,3.02,12.96,3.02,8.24,0,17.87-9.1,17.87-22.48s-8.68-18.76-9.55-19.34c-.05-.03-.09-.07-.11-.12-.67-1.69-6.89-11.82-17.41-12.05-.2,0-.34-.15-.37-.35-.42-3.8-7.72-8.74-13.76-8.89-.15,0-.27-.08-.33-.22-.65-1.38-6.66-6.53-24.11-6.58-.12,0-.22-.05-.29-.14-.43-.56-2.94-1.97-6.53-1.97-5.1,0-7.35,1.55-8.05,2.18-.14,.13-.35,.13-.49,.01-.5-.43-1.93-1.27-5.5-1.27-.84,0-5.63,.25-7.55,2.02-.07,.06-.15,.09-.24,.09-10.28,.06-15.07,7.15-15.68,8.13-.05,.07-.11,.13-.19,.16-1.5,.55-16.21,6.23-16.42,18.93,0,.15-.08,.28-.22,.34-1.37,.57-6.37,5.42-6.37,10.56,0,3.05,.08,4.17,.15,4.57,.02,.14-.03,.27-.14,.36-.98,.74-4.5,3.75-4.5,8.85,0,3.14,1.66,4.81,2.2,5.27,.11,.09,.15,.22,.12,.35-.22,1.14-1,6.51,2.75,10.27,2.08,2.08,6.51,3.3,7.67,3.68,.23,.08,.33,.34,.21,.55-.6,1.01-3.41,2.51-3.41,6.68s8.82,20.23,32.86,20.41c.21,0,.38,.18,.38,.39-.06,8.88-2.1,14.78-3.09,17.12-.15,.35,.24,.67,.55,.47Z"/></svg>