<?xml version="1.0" encoding="UTF-8"?><svg id="a" xmlns="http://www.w3.org/2000/svg" viewBox="0 0 73.3 141.33"><path class="b" d="M57.27,53.39c-.62,.35-.71,1.2-.17,1.67l8.97,7.76c.66,.57,1.7,.1,1.7-.77v-10.61c0-.2,.06-.39,.16-.55l5.22-8.14c.26-.41,.2-.94-.15-1.28l-4.04-3.96c-.26-.25-.36-.61-.28-.96l1.97-8.5c.05-.22,.03-.45-.07-.66-.3-.65-1.01-2.1-1.55-2.58-.2-.18-.28-.44-.29-.71C68.31,10.12,51.44,0,36.65,0S5,10.12,4.57,24.08c0,.26-.09,.53-.29,.71-.54,.49-1.25,1.93-1.55,2.58-.1,.21-.12,.44-.07,.66l1.97,8.5c.08,.35-.03,.71-.28,.96L.31,41.45c-.35,.34-.41,.88-.15,1.28l5.22,8.14c.11,.17,.16,.36,.16,.55v10.61c0,.88,1.03,1.35,1.7,.77l8.97-7.76c.54-.47,.45-1.32-.17-1.67-.32-.18-.52-.51-.53-.87-.03-1.6,.17-6.08,3.17-9.36,.2-.21,.48-.33,.77-.33,4.03,.03,8.18,.43,11.34,2.98,.48,.39,.53,1.11,.08,1.54-5.45,5.3-25.02,23.45-28.54,26.72-.33,.3-.42,.77-.23,1.18,2.17,4.67,14.92,32.19,14.92,35.62s-2.47,12.01-3.11,14.22c-.09,.33-.02,.67,.2,.94l5.19,6.27c.51,.61,1.51,.45,1.76-.31,.17-.5,.29-1.22,.31-2.24,0-.24-.08-.48-.23-.66-2.3-2.87-2.92-5.62-3.08-6.58-.04-.22,0-.45,.11-.64l4.43-8.31c.1-.2,.14-.42,.11-.64l-1.41-9.14c-.01-.08-.03-.15-.06-.23l-11.12-27.71c-.18-.45-.02-.96,.38-1.23l7.22-4.9c.41-.28,.95-.22,1.3,.12l4.14,4.14c.25,.25,.35,.61,.27,.96l-2.57,11.09c-.05,.21-.03,.43,.05,.63l9.44,22.34c.08,.2,.1,.41,.06,.62l-4.28,19.13c-.06,.27,0,.56,.15,.79l4.7,7.1c.07,.1,.11,.21,.14,.32l.95,3.88s.2,.49,1.09,.49,1.29-.49,1.29-.49v-5.54c0-.2-.06-.39-.16-.55l-3.63-5.67c-.16-.26-.21-.57-.11-.86l5.29-16.61c.07-.22,.06-.45-.02-.67l-7.81-21.02c-.05-.14-.07-.28-.06-.43,.16-2.11,1.65-18.77,8.74-18.77s8.58,16.66,8.74,18.77c.01,.15-.01,.29-.06,.43l-7.81,21.02c-.08,.21-.09,.45-.02,.67l5.29,16.61c.09,.29,.05,.61-.11,.86l-3.63,5.67c-.11,.16-.16,.36-.16,.55v5.54s.4,.49,1.29,.49,1.09-.49,1.09-.49l.95-3.88c.03-.12,.08-.22,.14-.32l4.7-7.1c.15-.23,.21-.52,.15-.79l-4.28-19.13c-.05-.21-.03-.43,.06-.62l9.44-22.34c.08-.2,.1-.42,.05-.63l-2.57-11.09c-.08-.34,.02-.71,.27-.96l4.14-4.14c.35-.35,.89-.4,1.3-.12l7.22,4.9c.4,.27,.56,.78,.38,1.23l-11.12,27.71c-.03,.07-.05,.15-.06,.23l-1.41,9.14c-.03,.22,0,.44,.11,.64l4.43,8.31c.11,.2,.14,.42,.11,.64-.16,.95-.78,3.71-3.08,6.58-.15,.19-.24,.43-.23,.66,.02,1.03,.15,1.74,.31,2.24,.25,.76,1.25,.92,1.76,.31l5.19-6.27c.22-.26,.29-.61,.2-.94-.64-2.21-3.11-10.95-3.11-14.22,0-3.44,12.74-30.96,14.92-35.62,.19-.4,.09-.87-.23-1.18-3.52-3.27-23.1-21.42-28.54-26.72-.45-.43-.4-1.15,.08-1.54,3.17-2.55,7.31-2.95,11.34-2.98,.29,0,.57,.12,.77,.33,3,3.28,3.2,7.77,3.17,9.36,0,.37-.21,.69-.53,.87Zm-20.62,10.77c-3.15,0-6.02-1.55-6.02-2.74s3.26-8.34,6.02-8.34v11.08Zm6.02-2.74c0,1.19-2.87,2.74-6.02,2.74v-11.08c2.75,0,6.02,7.15,6.02,8.34Z"/></svg>