<?xml version="1.0" encoding="UTF-8"?><svg id="a" xmlns="http://www.w3.org/2000/svg" viewBox="0 0 73.23 141.19"><g><rect x="7.81" y="75.52" width="5" height="62.9" rx=".02" ry=".02"/><path d="M14.95,72.71l-4.7-31.43s-.04-.02-.04,0l-5.02,31.44s0,.02-.02,.02H.02s-.02-.01-.02-.02L10.35,8.45s.04-.02,.04,0l9.73,64.26s0,.02-.02,.02h-5.13s-.02,0-.02-.02Z"/></g><g><rect x="60.42" y="75.52" width="5" height="62.9" rx=".02" ry=".02"/><path d="M58.28,72.71l4.7-31.43s.04-.02,.04,0l5.02,31.44s0,.02,.02,.02h5.15s.02-.01,.02-.02L62.88,8.45s-.04-.02-.04,0l-9.73,64.26s0,.02,.02,.02h5.13s.02,0,.02-.02Z"/></g><g><rect x="33.97" y="67.09" width="5" height="74.1" rx=".02" ry=".02"/><path d="M31.82,64.28l4.7-31.43s.04-.02,.04,0l5.02,31.44s0,.02,.02,.02h5.15s.02-.01,.02-.02L36.42,.02s-.04-.02-.04,0l-9.73,64.26s0,.02,.02,.02h5.13s.02,0,.02-.02Z"/></g></svg>