<svg id="b7607b8d-caa4-4bf4-bc2e-8fc471b9c6d2" data-name="Ebene 2" xmlns="http://www.w3.org/2000/svg" viewBox="0 0 141.92 74.29"><path d="M107.5,18.17,103.69,4.56a.13.13,0,0,1,.09-.15L119,.17h0c.15,0,13.56-2.38,17.45,11.51l5.15,18.41c2.68,9.59-10.53,15.28-10.71,15.36h0l-14.45,4a.13.13,0,0,1-.15-.09L112.54,36a.12.12,0,0,1,.08-.15l14.94-4.18a.11.11,0,0,0,.08-.15l-4.89-17.24a.12.12,0,0,0-.14-.09l-15,4.09A.13.13,0,0,1,107.5,18.17Z"/><path d="M44.24,69.55,39.19,54.09a0,0,0,0,1,.06-.05l22,10.83s.07,0,.06-.05l-5-15.52s0-.07.06,0l21.54,11a0,0,0,0,0,.06,0L73.05,44.62a0,0,0,0,1,.06-.06L94.44,55.44s.08,0,.06,0L89.49,40s0-.07.06-.06l21.72,10.89a0,0,0,0,0,.06-.05l-5.09-15.58h0S98.29,5.81,97.78,6,9.87,31.38,4.41,32.91.1,38.08.1,38.08l6.59,25,0,0L27.53,74.28a0,0,0,0,0,.06,0L22.54,58.75s0-.07.06,0L44.18,69.61A0,0,0,0,0,44.24,69.55Z"/></svg>