<?xml version="1.0" encoding="UTF-8"?><svg id="a" xmlns="http://www.w3.org/2000/svg" viewBox="0 0 130.3 139.14"><path d="M50.6,83.14l-1.31,19.39-12.38,10.03c-4.84-2.56-10.95-2.16-15.48,1.51-6.06,4.9-6.99,13.79-2.09,19.85s13.79,6.99,19.85,2.09c4.53-3.67,6.19-9.56,4.69-14.83l12.38-10.03,19.24,2.75,54.81-69.83L50.6,83.14Zm-17.89,32.81c.24,1.19,.25,2.43,0,3.66-.02,.12-.05,.24-.08,.37-.12,.51-.29,1.02-.5,1.52-1.01,2.34-2.86,4.04-5.04,4.94,.27-.6,.5-1.22,.69-1.87,.82-2.91,.65-5.86-.28-8.5,1.7-.53,3.51-.56,5.21-.11Zm-9.35,2.77c.33,1.46,.33,3.02-.11,4.57-.39,1.37-1.07,2.58-1.95,3.59-.07-.02-.14-.04-.21-.06-.55-2.85,.24-5.87,2.27-8.1Zm12.86,13.61c-3.7,3-8.98,2.71-12.35-.47,.48-.01,.96-.05,1.43-.11,.03,.02,.05,.05,.08,.07,3.55-.48,6.93-2.29,9.3-5.35,.85-1.09,1.5-2.27,1.98-3.5,0-.01-.01-.03-.02-.04,.5-1.27,.8-2.57,.92-3.87,.02,.02,.04,.04,.05,.06,3.27,4.03,2.64,9.95-1.39,13.21Zm6.11-14.66c-.32-.52-.66-1.04-1.06-1.53s-.83-.93-1.27-1.35l50.13-38.21-47.8,41.09Z"/><path d="M26.92,101.67l.25-.32,2.16-5.84,3.48-1.45,2.56-3.31-2.91-17.5-9.49,28.24c1.31-.1,2.63-.05,3.96,.18Z"/><path d="M13.98,105.08c1.53-1.26,3.27-2.21,5.13-2.82l21.66-53.76-7.29,21.7,18.01-14.81L58.66,0,10.14,74.34l8.78,17.33-4.95,13.41Z"/><path d="M78.05,68.21l24.14-52.19L33.62,72.41l3.19,19.17-9.74,12.61c-5.3-1.38-11.16,.42-14.72,5.03-4.52,5.85-3.72,14.12,1.63,19.02-.34-2.46-.12-4.96,.66-7.32-1-2.89-.57-6.22,1.44-8.82,.06-.08,.13-.15,.2-.23,1.24,.29,2.44,.82,3.49,1.6,1.2-1.12,2.57-2.05,4.05-2.75-.82-.77-1.72-1.42-2.67-1.96,2.46-.64,5.16-.27,7.43,1.18,2.45-.2,4.94,.16,7.29,1.09-.01-.02-.02-.05-.03-.07l9.74-12.61,1.67-.15,.68-10.1-14.41,19.82c-.43-.44-.89-.86-1.38-1.24-.5-.39-1.02-.72-1.55-1.03l17.6-21.45,.09-1.39,1.76-.86,20.54-25.02-16.88,23.23,24.36-11.94Z"/><path d="M14.32,130.29c-.08-.06-.16-.13-.24-.19-1.07,0-2.16-.18-3.23-.57-4.87-1.8-7.36-7.2-5.56-12.07,.69-1.87,1.91-3.38,3.43-4.44,.55-1.88,1.44-3.69,2.7-5.33,.26-.33,.53-.65,.81-.96-5.01,.68-9.49,4.02-11.36,9.1-2.7,7.31,1.04,15.42,8.35,18.12,2.45,.9,4.99,1.08,7.38,.64-.82-1.26-1.44-2.61-1.87-4-.14-.1-.29-.18-.42-.29Z"/></svg>