<svg id="bd3ded93-ba1c-4fde-a84b-1f717c7a34be" data-name="Ebene 2" xmlns="http://www.w3.org/2000/svg" viewBox="0 0 138.33 136.54"><path d="M138.33,106.25l0-.29a16,16,0,0,0-.26-2.08l-8.27-65c-.63-5.38-1.37-10.94-2.09-16.49L126.35,12c-.09-.72-.18-1.43-.26-2.14a.15.15,0,0,0-.06-.09A94.37,94.37,0,0,0,67.9,1.46,91,91,0,0,0,32.75,15.83a.11.11,0,0,0,0,.11c.09.49.17,1,.26,1.48l2.57,15c1,6,2,12,3.07,17.93l7.25,42.39a.1.1,0,0,1-.14.12c-7-2.56-16.34-2.17-25.34,1.71C5.22,101.11-3.35,115.05,1.24,125.72s20.6,14,35.76,7.49c13.53-5.82,21.8-17.54,20.17-27.57h0L47,46a.11.11,0,0,1,.06-.12,109.76,109.76,0,0,1,72.22-9.68.1.1,0,0,1,.08.09l7,55.14a.11.11,0,0,1-.14.12c-7-2.38-16.19-1.91-25.08,1.91C85.88,100,77.23,114,81.82,124.65s20.69,14,36,7.41c12.79-5.5,20.93-16.2,20.53-25.8Z"/></svg>