<?xml version="1.0" encoding="UTF-8"?><svg id="a" xmlns="http://www.w3.org/2000/svg" viewBox="0 0 139.7 139.7"><path d="M139.65,87.31c-2.81,.56-33.41,6.12-52.14-11.87-.03-.03-.02-.07,.02-.08,3.94-1.07,15.67-5.12,27.83-17.28,13.78-13.78,16.01-23.66,16.28-25.21,0-.05-.06-.08-.08-.03-1.59,2.38-19.29,27.95-45.26,28.48-.04,0-.06-.04-.05-.07,2.03-3.54,7.46-14.7,7.46-31.89C93.7,9.87,88.29,1.31,87.39,.02c-.03-.04-.09-.02-.08,.04,.56,2.81,6.12,33.41-11.87,52.14-.03,.03-.07,.02-.08-.02-1.07-3.94-5.12-15.67-17.28-27.83-13.78-13.78-23.66-16.01-25.21-16.28-.05,0-.08,.06-.03,.08,2.38,1.59,27.95,19.29,28.48,45.26,0,.04-.04,.06-.07,.05-3.54-2.03-14.7-7.46-31.89-7.46C9.87,46,1.31,51.41,.02,52.31c-.04,.03-.02,.09,.04,.08,2.81-.56,33.41-6.12,52.14,11.87,.03,.03,.02,.07-.02,.08-3.94,1.07-15.67,5.12-27.83,17.28-13.78,13.78-16.01,23.66-16.28,25.21,0,.05,.06,.08,.08,.03,1.59-2.38,19.29-27.95,45.26-28.48,.04,0,.06,.04,.05,.07-2.03,3.54-7.46,14.7-7.46,31.89,0,19.49,5.41,28.05,6.31,29.34,.03,.04,.09,.02,.08-.04-.56-2.81-6.12-33.41,11.87-52.14,.03-.03,.07-.02,.08,.02,1.07,3.94,5.12,15.67,17.28,27.83,13.78,13.78,23.66,16.01,25.21,16.28,.05,0,.08-.06,.03-.08-2.38-1.59-27.95-19.29-28.48-45.26,0-.04,.04-.06,.07-.05,3.54,2.03,14.7,7.46,31.89,7.46,19.49,0,28.05-5.41,29.34-6.31,.04-.03,.02-.09-.04-.08Zm-64.16-7.52c-2.04-1.09-3.63-2.23-4.85-3.28-.03-.02-.07,0-.08,.03-1.43,6.22,.73,11.99,1.15,13.03,.02,.05-.03,.08-.07,.05-.6-.5-3.02-2.81-4.83-8.75-.68-2.21-.99-4.15-1.11-5.75,0-.04-.04-.05-.07-.03-5.41,3.39-7.96,9-8.39,10.03-.02,.05-.08,.04-.09-.01-.07-.78-.15-4.12,2.77-9.61,1.09-2.04,2.23-3.63,3.28-4.85,.02-.03,0-.07-.03-.08-6.22-1.43-11.99,.73-13.03,1.15-.05,.02-.08-.03-.05-.07,.5-.6,2.81-3.02,8.75-4.83,2.21-.68,4.15-.99,5.75-1.11,.04,0,.05-.04,.03-.07-3.39-5.41-9-7.96-10.03-8.39-.05-.02-.04-.08,.01-.09,.78-.07,4.12-.15,9.61,2.77,2.04,1.09,3.63,2.23,4.85,3.28,.03,.02,.07,0,.08-.03,1.43-6.22-.73-11.99-1.15-13.03-.02-.05,.03-.08,.07-.05,.6,.5,3.02,2.81,4.83,8.75,.68,2.21,.99,4.15,1.11,5.75,0,.04,.04,.05,.07,.03,5.41-3.39,7.96-9,8.39-10.03,.02-.05,.08-.04,.09,.01,.07,.78,.15,4.12-2.77,9.61-1.09,2.04-2.23,3.63-3.28,4.85-.02,.03,0,.07,.03,.08,6.22,1.43,11.99-.73,13.03-1.15,.05-.02,.08,.03,.05,.07-.5,.6-2.81,3.02-8.75,4.83-2.21,.68-4.15,.99-5.75,1.11-.04,0-.05,.04-.03,.07,3.39,5.41,9,7.96,10.03,8.39,.05,.02,.04,.08-.01,.09-.78,.07-4.12,.15-9.61-2.77Z"/></svg>