<?xml version="1.0" encoding="UTF-8"?><svg id="a" xmlns="http://www.w3.org/2000/svg" viewBox="0 0 140.84 140.84"><path d="M70.42,0C31.59,0,0,31.59,0,70.42s31.59,70.42,70.42,70.42,70.42-31.59,70.42-70.42S109.25,0,70.42,0Zm0,134.84c-35.52,0-64.42-28.9-64.42-64.42S34.9,6,70.42,6s64.42,28.9,64.42,64.42-28.9,64.42-64.42,64.42Z"/><path d="M70.73,14.34c-30.8,0-55.86,25.06-55.86,55.86s25.06,55.86,55.86,55.86,55.86-25.06,55.86-55.86S101.54,14.34,70.73,14.34Zm-7.78,92.14c-8.04,0-14.59-6.54-14.59-14.59s6.54-14.59,14.59-14.59,14.59,6.54,14.59,14.59-6.54,14.59-14.59,14.59Zm20.59-14.59c0-11.35-9.24-20.59-20.59-20.59-9.04,0-16.71,5.86-19.48,13.97-.03-.55-.06-1.11-.06-1.67,0-15.02,12.22-27.23,27.23-27.23s27.23,12.22,27.23,27.23-12.01,27.01-26.84,27.22c7.34-3.15,12.5-10.45,12.5-18.93Zm19.95-13.41c-2.47-15.9-16.25-28.11-32.84-28.11-18.32,0-33.23,14.91-33.23,33.23,0,16.58,12.21,30.37,28.11,32.84-.74,.04-1.48,.07-2.24,.07-22.2,0-40.25-18.06-40.25-40.25s18.06-40.25,40.25-40.25,40.25,18.06,40.25,40.25c0,.75-.02,1.49-.07,2.23Zm-22.61,40.54c16.81-6.93,28.67-23.49,28.67-42.77,0-25.5-20.75-46.25-46.25-46.25-15.9,0-29.96,8.07-38.28,20.33,7.69-17.63,25.29-29.99,45.72-29.99,27.49,0,49.86,22.37,49.86,49.86,0,24.02-17.07,44.12-39.72,48.82Z"/></svg>