<?xml version="1.0" encoding="UTF-8"?><svg id="a" xmlns="http://www.w3.org/2000/svg" viewBox="0 0 142.12 141.52"><circle cx="71.06" cy="70.56" r="22.15"/><path d="M114.23,82.19l27.89-11.42-27.89-11.42,17.95-23.19-29.27,3.36,3.36-29.27-23.74,18L71.06,0l-11.47,28.23L35.85,10.23l3.36,29.27-29.27-3.36,17.95,23.19L0,70.76l27.89,11.42-17.95,23.19,29.27-3.36-3.36,29.27,23.74-18,11.47,28.23,11.47-28.23,23.74,18-3.36-29.27,29.27,3.36-17.95-23.19Zm-40.9,23.52c-21.13,1.34-38.55-16.08-37.21-37.21,1.1-17.42,15.24-31.56,32.66-32.66,21.13-1.34,38.55,16.08,37.21,37.21-1.1,17.42-15.24,31.56-32.66,32.67Z"/></svg>