<svg id="b4ee36b6-93cf-4315-b509-2ffe317961fe" data-name="Ebene 2" xmlns="http://www.w3.org/2000/svg" viewBox="0 0 142.26 142.25"><path d="M82.21,34.9a37.88,37.88,0,1,1-47.3,25.15A37.89,37.89,0,0,1,82.21,34.9ZM95.47,78.57a25.45,25.45,0,1,0-31.78,16.9A25.45,25.45,0,0,0,95.47,78.57Z"/><path d="M124.81,71.43v.07a53.1,53.1,0,0,0-.86-9.94h0l15.12-12.44c-2.42-5.34-7.77-15.85-10.7-20.93L109.7,33.8a53.64,53.64,0,0,0-8.84-7.36l0,0L103.27,7,91.8,3.5,80.34,0,71.43,17.45h0A53.38,53.38,0,0,0,60,18.62L47.68,3.54C42.42,6.11,32.11,11.83,27.11,14.9l5.58,18.77h0a53.51,53.51,0,0,0-6.3,7.79l0-.09L7.17,39a.2.2,0,0,0-.21.13L3.51,50.45h0L0,61.92l17.45,8.9v-.1a52.72,52.72,0,0,0,.87,10v0L3.19,93.13C5.62,98.47,11,109,13.9,114.05l18.66-5.6a53.36,53.36,0,0,0,8.85,7.37l0,0L39,135.24l11.46,3.51,11.47,3.5,8.91-17.44h0a53.86,53.86,0,0,0,11.45-1.16l12.34,15.08c5.27-2.57,15.58-8.29,20.58-11.37l-5.58-18.77h0a53.67,53.67,0,0,0,6.28-7.76l0,.06,19.44,2.38,3.5-11.47h0l3.51-11.46Zm-9.92,10.62A45.1,45.1,0,1,1,85,28.2,45.11,45.11,0,0,1,114.89,82.05Z"/></svg>